<?xml version="1.0" encoding="iso-8859-1"?>
<!-- Generator: Adobe Illustrator 19.0.0, SVG Export Plug-In . SVG Version: 6.00 Build 0)  -->
<svg version="1.1" id="Capa_1" xmlns="http://www.w3.org/2000/svg" xmlns:xlink="http://www.w3.org/1999/xlink" x="0px" y="0px"
	 viewBox="0 0 360 360" style="enable-background:new 0 0 360 360;" xml:space="preserve">
<g id="XMLID_450_">
	<path id="XMLID_451_" d="M344.077,127.272h-48.154V77.834L212.9,0H15.923v360h280v-50h48.154V127.272z M314.077,280h-210V157.273
		h210V280z"/>
	<path id="XMLID_454_" d="M146.662,237.154c-2.57,0-5.076-0.313-7.52-0.94c-2.443-0.626-4.669-1.394-6.674-2.303
		c-2.006-0.908-3.745-1.817-5.217-2.727c-1.474-0.907-2.491-1.645-3.056-2.209l-5.733,11.186c3.885,2.758,8.271,4.888,13.16,6.392
		c4.888,1.504,9.838,2.256,14.852,2.256c3.258,0,6.376-0.361,9.354-1.081c2.976-0.72,5.607-1.863,7.896-3.431
		c2.287-1.565,4.104-3.619,5.452-6.157c1.347-2.538,2.02-5.593,2.02-9.165c0-3.069-0.502-5.654-1.504-7.755
		c-1.003-2.099-2.429-3.9-4.276-5.405c-1.85-1.504-4.105-2.757-6.768-3.76c-2.664-1.002-5.625-1.941-8.883-2.819
		c-2.507-0.626-4.716-1.223-6.627-1.786c-1.912-0.564-3.494-1.19-4.747-1.88c-1.254-0.689-2.209-1.488-2.867-2.397
		c-0.657-0.907-0.986-2.052-0.986-3.431c0-2.381,0.877-4.23,2.632-5.546c1.754-1.316,4.418-1.975,7.99-1.975
		c2.005,0,3.979,0.251,5.922,0.752c1.941,0.503,3.743,1.113,5.404,1.833c1.66,0.722,3.07,1.457,4.23,2.209
		c1.159,0.752,1.958,1.349,2.396,1.786l5.734-10.528c-2.946-2.005-6.392-3.743-10.34-5.217c-3.948-1.472-8.273-2.209-12.972-2.209
		c-3.385,0-6.55,0.455-9.494,1.363c-2.946,0.909-5.531,2.241-7.755,3.995c-2.226,1.755-3.965,3.948-5.218,6.58
		c-1.254,2.632-1.88,5.64-1.88,9.023c0,2.57,0.391,4.779,1.176,6.627c0.782,1.85,1.957,3.479,3.524,4.889
		c1.565,1.409,3.525,2.632,5.875,3.666c2.351,1.033,5.123,1.99,8.319,2.866c2.632,0.752,5.013,1.442,7.144,2.068
		c2.13,0.627,3.948,1.316,5.452,2.068c1.504,0.752,2.663,1.63,3.479,2.632c0.813,1.003,1.222,2.225,1.222,3.666
		C157.378,234.867,153.806,237.154,146.662,237.154z"/>
	<polygon id="XMLID_455_" points="209.83,248.058 235.868,181.317 222.238,181.317 204.378,231.796 186.33,181.317 172.7,181.317 
		198.926,248.058 	"/>
	<path id="XMLID_458_" d="M245.88,238.658c2.851,3.071,6.204,5.484,10.058,7.237c3.854,1.756,7.974,2.633,12.361,2.633
		c7.08,0,13.284-2.663,18.611-7.99v7.52h10.717v-34.31h-24.158v9.494h13.441v4.699c-5.202,6.08-11.03,9.118-17.483,9.118
		c-2.82,0-5.438-0.578-7.85-1.738c-2.413-1.159-4.497-2.741-6.251-4.747c-1.755-2.005-3.134-4.371-4.136-7.098
		c-1.003-2.726-1.504-5.654-1.504-8.789c0-3.008,0.454-5.858,1.363-8.554c0.907-2.693,2.192-5.076,3.854-7.144
		c1.66-2.068,3.666-3.697,6.017-4.889c2.35-1.189,4.935-1.786,7.755-1.786c3.571,0,6.876,0.879,9.917,2.633
		c3.039,1.755,5.404,4.293,7.097,7.613l9.682-7.143c-2.256-4.449-5.625-7.99-10.104-10.622c-4.481-2.632-9.855-3.948-16.121-3.948
		c-4.639,0-8.93,0.893-12.878,2.68c-3.948,1.785-7.379,4.198-10.293,7.237c-2.914,3.04-5.202,6.58-6.862,10.622
		c-1.661,4.042-2.491,8.352-2.491,12.925c0,4.826,0.83,9.322,2.491,13.489C240.771,231.969,243.027,235.588,245.88,238.658z"/>
</g>
<g>
</g>
<g>
</g>
<g>
</g>
<g>
</g>
<g>
</g>
<g>
</g>
<g>
</g>
<g>
</g>
<g>
</g>
<g>
</g>
<g>
</g>
<g>
</g>
<g>
</g>
<g>
</g>
<g>
</g>
</svg>
